<svg width="150" height="150" viewBox="0 0 150 150" fill="none" xmlns="http://www.w3.org/2000/svg">
<g id="Frame" clip-path="url(#clip0_18_2)">
<path id="Vector" d="M75.0626 12.5687C79.9238 12.569 84.6184 14.3398 88.2689 17.55L89.2314 18.4562L93.5939 22.8187C94.7911 24.0082 96.3546 24.7591 98.0314 24.95L98.8751 25H105.125C110.233 24.9997 115.147 26.9536 118.86 30.4609C122.573 33.9682 124.803 38.7632 125.094 43.8625L125.125 45V51.25C125.125 52.9375 125.7 54.5812 126.738 55.8937L127.3 56.5188L131.656 60.8813C135.267 64.4715 137.372 69.3039 137.543 74.3929C137.714 79.482 135.937 84.4445 132.575 88.2688L131.669 89.2313L127.306 93.5938C126.117 94.791 125.366 96.3544 125.175 98.0312L125.125 98.875V105.125C125.125 110.233 123.172 115.147 119.664 118.86C116.157 122.573 111.362 124.803 106.263 125.094L105.125 125.125H98.8751C97.19 125.126 95.5542 125.694 94.2314 126.738L93.6064 127.3L89.2439 131.656C85.6536 135.267 80.8213 137.372 75.7322 137.543C70.6431 137.714 65.6806 135.937 61.8564 132.575L60.8939 131.669L56.5314 127.306C55.3341 126.117 53.7707 125.366 52.0939 125.175L51.2501 125.125H45.0001C39.8925 125.125 34.9783 123.171 31.2653 119.664C27.5523 116.157 25.3219 111.362 25.0314 106.263L25.0001 105.125V98.875C24.9996 97.1899 24.4316 95.5541 23.3876 94.2312L22.8251 93.6063L18.4689 89.2438C14.8581 85.6535 12.7528 80.8211 12.5821 75.7321C12.4113 70.643 14.1881 65.6805 17.5501 61.8563L18.4564 60.8937L22.8189 56.5312C24.0083 55.334 24.7592 53.7706 24.9501 52.0938L25.0001 51.25V45L25.0314 43.8625C25.3105 38.959 27.384 34.3297 30.8569 30.8568C34.3298 27.3839 38.9592 25.3103 43.8626 25.0312L45.0001 25H51.2501C52.9352 24.9994 54.5711 24.4314 55.8939 23.3875L56.5189 22.825L60.8814 18.4687C62.7397 16.5993 64.9493 15.1157 67.383 14.1031C69.8168 13.0906 72.4267 12.5691 75.0626 12.5687ZM98.1689 58.0813C96.9968 56.9096 95.4074 56.2513 93.7501 56.2513C92.0928 56.2513 90.5034 56.9096 89.3314 58.0813L68.7501 78.6562L60.6689 70.5813L60.0814 70.0625C58.8252 69.0912 57.2464 68.6344 55.6656 68.785C54.0848 68.9356 52.6206 69.6822 51.5704 70.8733C50.5202 72.0643 49.9627 73.6104 50.0112 75.1976C50.0597 76.7848 50.7105 78.294 51.8314 79.4187L64.3314 91.9187L64.9189 92.4375C66.1214 93.3703 67.623 93.8323 69.1419 93.7368C70.6608 93.6413 72.0927 92.9949 73.1689 91.9187L98.1689 66.9188L98.6876 66.3312C99.6204 65.1287 100.082 63.6272 99.9869 62.1082C99.8914 60.5893 99.245 59.1575 98.1689 58.0813Z" fill="#4a3aff"/>
</g>
<defs>
<clipPath id="clip0_18_2">
<rect width="150" height="150" fill="white"/>
</clipPath>
</defs>
</svg>
